# xmcd
# 
# Track frame offsets:
#     150
#     14247
#     25235
#     33995
#     44359
#     55843
#     66200
#     72197
#     79427
#     101816
#     120789
#     134122
#     157680
#     171272
#     193409
# 
# Disc length: 2755
# 
# Revision: 1
# Processed by: cddbd v1.5.2PL0 Copyright (c) Steve Scherf et al.
# Submitted via: fre:ac v1.0.17
# 
DISCID=d60ac10f
DTITLE=Eric Clapton - The Yardbird Years
DYEAR=0
DGENRE=Blues
TTITLE0=Draggin' my tail
TTITLE1=Snake Drive
TTITLE2=Talking About You
TTITLE3=West Coast Idea
TTITLE4=Pounds and Stomps
TTITLE5=Honey in your Chips
TTITLE6=Choker
TTITLE7=Got Love if you Want It
TTITLE8=The First Time I Met The Blues
TTITLE9=Take It Easy Baby
TTITLE10=Pretty Girl
TTITLE11=Five Long Years
TTITLE12=Out On The Water Coast
TTITLE13=Here 'tis
TTITLE14=You Can't Judge A Book By Looking At The Cover
EXTD=
EXTT0=
EXTT1=
EXTT2=
EXTT3=
EXTT4=
EXTT5=
EXTT6=
EXTT7=
EXTT8=
EXTT9=
EXTT10=
EXTT11=
EXTT12=
EXTT13=
EXTT14=
PLAYORDER=
